<svg xmlns="http://www.w3.org/2000/svg" width="400" height="368.145" viewBox="0 0 400 368.145">
  <g id="Group_1" data-name="Group 1" transform="translate(-116.359 -216.668)">
    <path id="Path_1" data-name="Path 1" d="M425.015,244.665c-60.015-8.8-94.059,30.33-98.662,36.017-2.77-6.769-24.122-54.022-84.161-62.822-64.682-9.487-115.076,38.955-124.235,101.415-9.156,62.437,17.9,157.517,163.757,265.475l0,.049h.048l.053.015.007-.049C452.529,523.225,505.743,439.916,514.9,377.476c9.158-62.461-25.207-123.324-89.884-132.811" transform="translate(0)" fill="#e41154"/>
    <path id="Path_2" data-name="Path 2" d="M241.686,294.96l-.46,3.273c-.471-.144-.762-.2-.762-.2-14.677,5.858-25.645,18.257-25.645,18.257s-.948-.8-3.844-1.208a33,33,0,0,0-7.317-.069c-9.647.8-14.28,6.252-14.218,12.723l-2.809.645L191,334.012V334a11.042,11.042,0,0,0,5.814,4.961l.167,1.983c1.634,19.56-6.7,29.417-6.7,29.417s1.139-6.523-.162-22.108c-.943-11.286-3.519-18.955-7.641-23.735l0-.031-5.223-6.927.3,2.994a19.524,19.524,0,0,0-6.657-2.122,29.776,29.776,0,0,0-6.663-.13c-12.05,1.008-18.572,6.547-20.017,14.365l-.937-2.046-4.506.481,5.2,6.9c13.458,9.83,14.409,17.427,16.093,28.767a37.792,37.792,0,0,0,.925,4.331l-2.143.444,6.3,8.569,0-.021c3.84,5.331,9.53,8.558,16.646,9.558a38.315,38.315,0,0,0,8.526.183c26.976-2.262,38.913-27.056,36.919-50.89a50.779,50.779,0,0,0-.683-5.631s25.09-4.732,23.508-23.661a13.118,13.118,0,0,0-2.664-7.177h0Z" transform="translate(7.382 25.783)" fill="#b40a44"/>
    <path id="Path_3" data-name="Path 3" d="M271.9,315.959l-.307.415-.2,3.462c-.416-.086-.847-.158-1.293-.221a30.246,30.246,0,0,0-4.691-.258,43.972,43.972,0,0,0-10.054,1.321l-4.408,12.453a14.905,14.905,0,0,0-4.272-9.576l.019,0-4.282-5.927.465,3.474a16.142,16.142,0,0,0-3.94-1.05,21.42,21.42,0,0,0-3.326-.2c-15,.243-27.373,13.772-27.024,35.076a40.9,40.9,0,0,0,1.408,10.491l-2.027.052,5.293,7.011.374.487.3.4,0-.047a16.771,16.771,0,0,0,11,5.921,24.806,24.806,0,0,0,3.892.227,18.317,18.317,0,0,0,16.787-10.4l4.982,6.637.011-.028a9.293,9.293,0,0,0,6.106,3.141,16.934,16.934,0,0,0,2.647.149c8.706-.14,16.074-5.194,17.738-12.462a19.311,19.311,0,0,1-1.49-7.741c-.012-.626-.02-1.26,3-28.283a20.642,20.642,0,0,0,.166-2.728,7.575,7.575,0,0,0-1.725-4.968l.029-.043Zm-27.145,30.356-4.8-1.5a3.842,3.842,0,0,1,2.966-1.367,4.963,4.963,0,0,1,.8.045,3.559,3.559,0,0,1,1.308.443c-.1.88-.193,1.663-.273,2.383m1.331,21.746a31.022,31.022,0,0,0,2.259-7.495,52.054,52.054,0,0,0-.425,6.1c.011.592.078,1.119.124,1.672Z" transform="translate(30.166 32.699)" fill="#b40a44"/>
    <path id="Path_4" data-name="Path 4" d="M329.874,320.515l-.068,2.621a18.684,18.684,0,0,0-5.853-1.8c-.67-.094-1.361-.16-2.07-.191-11.222-.5-18.273,5-23.234,14.264l-1.433-.649.066-1.482c.2-4.392-.861-7.563-2.788-9.786l.058-.013-4.545-6.035-.764,2.8a18.071,18.071,0,0,0-2.724-.6q-.848-.12-1.749-.161a27.134,27.134,0,0,0-13.146,2.774s-6.83,38.425-7.747,45.269l-3.991-.823,5.546,7.391.035-.066c1.9,2.429,5.285,3.821,9.61,4.429,1.13.158,2.324.266,3.572.32,12.058.526,16.756-5.882,16.756-5.882l4.615-27.937a6.065,6.065,0,0,1,3.5-.893c.13.008.257.019.378.036,1.336.187,2.092,1.067,2.021,2.695-.223,4.96-3.5,15.241-3.971,21.516l-4.045-.569,5.631,7.567-.009-.116c1.9,2.732,5.372,4.327,10.039,4.984q1.631.229,3.452.307c16.772.752,19.94-11.29,19.94-11.29a19.3,19.3,0,0,1-1.017-7.823c.246-5.448,2.777-15.105,3.01-20.341a20.3,20.3,0,0,0-3.556-13.175l.035.012Z" transform="translate(47.267 33.188)" fill="#b40a44"/>
    <path id="Path_5" data-name="Path 5" d="M388.2,323.89l-.542,3.864a30.069,30.069,0,0,0-3.723-.768c-.328-.047-.665-.086-1.008-.124a17.732,17.732,0,0,0-15.239,5.183c-2.394-4.114-6.629-7.362-13.712-8.357-.288-.04-.581-.077-.879-.109-17.108-1.878-28.7,9.41-30.488,25.682a22.135,22.135,0,0,0,.125,6.047l-2.328.191,5.642,7.5-.011-.048c3.1,3.951,8.339,6.87,16.323,7.993.456.064.919.121,1.392.174,5.733.631,10.543.1,13.279-1.706-.879,4.126-1.64,5.311-1.64,5.311-22.222-2.447-28.882.514-29.858,9.382l-.048.93-3.152-.919,4.912,6.5.389.513.219.294.015-.009c2.62,3.109,7.6,5.748,15.951,6.922q.861.12,1.772.221c16.893,1.856,24.57-4.576,24.57-4.576,7.383,4.919,11.488,11.408,20.977,12.742.242.033.484.064.732.092,7.927.872,11.863-3.233,12.655-10.435.537-4.9-.319-6.677-.319-6.677l-5.2-6.9-2.672,5.362c-5.955-1.831-8.667-4.711-13.68-7.908,4.533-6.677,12.061-33.83,12.922-41.652a9.868,9.868,0,0,0-1.2-6.482l.048-.015-.173-.234-.327-.433Zm-34.9,38.352c-1.714-.241-2.469-1.7-2.1-5.082.8-7.307,2.835-12.365,6.8-11.925l.1.013a3.7,3.7,0,0,1,1.909.946,69.6,69.6,0,0,0-2.2,11.368c-.888,2.344-2.231,4.934-4.42,4.691l-.086-.012m-8.21,26.125a2.225,2.225,0,0,1-2.083-2.126c.113-1.049,1.145-2,3.65-1.731.137.017.288.035.453.057a28.692,28.692,0,0,1,4.066.909s-2.745,3.261-5.981,2.9c-.036-.005-.072-.007-.106-.012" transform="translate(67.198 35.141)" fill="#b40a44"/>
    <path id="Path_6" data-name="Path 6" d="M138.795,332.051c-.883-10.569,5.615-18.48,20.26-19.7,15.16-1.271,23.936,6.745,25.875,29.951,1.3,15.586.165,22.108.165,22.108s8.338-9.857,6.7-29.417l-.166-1.983s-6.692-1.97-7.386-10.23c-.576-6.909,4.086-12.872,14.23-13.719,8.779-.74,11.161,1.277,11.161,1.277s10.97-12.4,25.647-18.261a12.562,12.562,0,0,1,9.6,11.625c1.583,18.928-23.505,23.661-23.505,23.661a50.479,50.479,0,0,1,.681,5.631c2,23.836-9.942,48.628-36.919,50.89-16.52,1.379-27.825-6.627-30.254-23.062-1.684-11.34-2.636-18.938-16.093-28.768" transform="translate(7.363 24.833)" fill="#fff"/>
    <path id="Path_7" data-name="Path 7" d="M240.958,337.9a3.875,3.875,0,0,0-2.1-.488c-3.673.06-5.188,3.759-5.047,12.049.047,3.042,1.018,4.6,2.906,4.569,1.783-.027,2.809-1.622,2.976-3.937.359-3.678.444-5.041,1.27-12.193m14.327,35.028c-7.66.13-11.3-4.009-11.435-12.3a52,52,0,0,1,.425-6.094c-2.5,14.107-11.126,18.753-19.525,18.9-10.912.178-19.931-5.869-20.238-24.538-.348-21.3,12.022-34.832,27.025-35.074,15.106-.253,15.336,13.279,15.336,13.279l4.407-12.453a43.993,43.993,0,0,1,10.055-1.321c8.391-.134,13.26,2.2,13.362,8.387a20.747,20.747,0,0,1-.165,2.732c-3.02,27.021-3.014,27.655-3,28.281a19.364,19.364,0,0,0,1.49,7.741c-1.664,7.269-9.033,12.323-17.739,12.462" transform="translate(29.029 31.829)" fill="#fff"/>
    <path id="Path_8" data-name="Path 8" d="M331.07,355.682a19.319,19.319,0,0,0,1.017,7.823s-3.168,12.042-19.94,11.29c-9.543-.425-15.483-3.738-15.133-11.493.272-6.189,3.806-17.062,4.034-22.2a2.3,2.3,0,0,0-2.4-2.73,6.029,6.029,0,0,0-3.5.892l-4.617,27.938s-4.7,6.409-16.755,5.878c-8.909-.4-15.193-3.21-14.875-10.338.126-2.716,7.85-46.177,7.85-46.177a27.079,27.079,0,0,1,13.146-2.776c7.758.348,12.933,4.367,12.513,13.794l-.242,5.349c5.021-11.225,12.363-18.039,24.84-17.482,11.008.492,17.583,8.453,17.071,19.885-.233,5.236-2.764,14.894-3.01,20.341" transform="translate(46.939 31.977)" fill="#fff"/>
    <path id="Path_9" data-name="Path 9" d="M355.585,341a3.591,3.591,0,0,0-2.006-.96c-3.964-.441-6,4.618-6.8,11.921-.378,3.442.409,4.895,2.184,5.094,2.188.247,3.532-2.348,4.42-4.691a69.658,69.658,0,0,1,2.2-11.364m-8.829,39.281a27.575,27.575,0,0,0-4.521-.965c-2.506-.274-3.536.682-3.65,1.732a2.24,2.24,0,0,0,2.189,2.132c3.237.362,5.982-2.9,5.982-2.9m44.4-46.873c-.863,7.822-8.389,34.973-12.921,41.652,6.8,4.336,9.344,8.1,21.551,9.448,0,0,.857,1.783.322,6.678-.794,7.2-4.73,11.307-12.658,10.435-10.015-1.1-14.139-7.789-21.708-12.833,0,0-7.677,6.431-24.573,4.576-15.965-1.755-20.714-8.508-20.057-14.451.976-8.868,7.636-11.83,29.858-9.381,0,0,.762-1.186,1.639-5.313-2.736,1.807-7.545,2.338-13.277,1.707-16.8-1.853-22.314-11.222-21.143-21.858,1.788-16.274,13.38-27.561,30.487-25.683,7.614.843,12.1,4.186,14.592,8.466a17.722,17.722,0,0,1,15.243-5.182c8.347.913,13.5,3.914,12.645,11.739" transform="translate(66.418 33.431)" fill="#fff"/>
  </g>
</svg>
